<svg id="loaderSvg" version="1.1" id="Слой_1" xmlns="http://www.w3.org/2000/svg" xmlns:xlink="http://www.w3.org/1999/xlink" x="0px" y="0px"
	 viewBox="0 0 801.9 255.3" style="enable-background:new 0 0 801.9 255.3;" xml:space="preserve">
    <g>
    <path class="st2486" d="M226.1,174.2c0.3-0.1,0.5-0.2,0.7-0.3l7.7-6c0.7-0.5,1.4-1.2,2.2-1.9c0.8-0.7,1.6-1.5,2.4-2.3
        c0.8-0.8,1.6-1.5,2.3-2.3c0.7-0.7,1.4-1.4,2-2c0.3-0.3,0.6-0.4,0.8-0.4c0.4-0.1,0.6-0.1,0.8,0.2c0.1,0.2,0.1,0.3-0.1,0.5
        c-0.1,0.2-0.2,0.4-0.4,0.5c-0.5,0.5-1,1-1.5,1.6c-0.5,0.5-1,1.1-1.5,1.7c-1.9,2-4.2,4.2-6.9,6.6c-2.6,2.4-5,4.4-7.2,6.1
        c-0.7,0.5-1,1.2-0.9,2.1c0.6,4.8,0.7,9.4,0.2,14c-0.4,4.5-2.4,8.2-5.9,11.1c-0.7,0.6-1.7,1.1-2.7,1.4c-1.1,0.3-2.2,0.4-3.3,0.3
        c-1.1-0.1-2.2-0.5-3.2-1.1c-1-0.6-1.9-1.6-2.5-2.8c-0.4-0.6-0.6-1.2-0.7-1.9c-0.1-0.7-0.1-1.3-0.1-2c0-3.8,1-7.2,3.1-10.2
        c1.1-1.5,2.3-2.9,3.5-4.4c1.2-1.4,2.7-2.6,4.4-3.7c0.4-0.2,0.6-0.5,0.6-0.7c0-0.3,0-0.6-0.1-0.9c-0.2-1.5-0.5-3-0.7-4.4
        c-0.3-1.5-0.5-2.9-0.8-4.4c-1-5.1-1.9-10.1-2.9-15.1c-1-5-1.9-10-2.8-15.1c-0.4-2.2-0.7-4.5-0.9-6.8c-0.2-2.3-0.5-4.5-0.8-6.8
        c0-0.4,0-0.8-0.1-1.1c-0.6,0.2-1.2,0.3-1.8,0.6c-0.6,0.2-1.2,0.4-1.8,0.6c-0.5,0.1-1,0.3-1.5,0.4c-0.5,0.2-1,0.3-1.5,0.4
        c-0.2,0.1-0.5,0.1-0.8,0.1c-0.3,0-0.6-0.1-0.9-0.2c-0.5,0-0.8-0.3-0.8-0.9c0.1-0.5,0.4-0.8,1-0.8c1.3,0,2.4-0.2,3.5-0.7
        c1.1-0.5,2.2-0.9,3.3-1.3c0.8-0.3,1.3-0.9,1.3-1.8c0.1-0.9,0.1-1.8,0.2-2.5c0.2-1.1,0.3-2.2,0.4-3.4c0.1-1.1,0.3-2.2,0.5-3.4
        c0.3-1.5,0.7-3.1,1.1-4.7c0.4-1.6,1-3.2,1.7-4.7c0.7-1.5,1.5-3,2.4-4.4c0.9-1.4,2.1-2.5,3.4-3.4c0.9-0.6,1.7-1,2.5-1.2
        c1.2-0.4,2.3-0.3,3.2,0.3c1,0.6,1.6,1.4,2,2.6c0.7,1.9,1,4,0.8,6.3c-0.3,2.8-1.1,5.5-2.5,8c-1.1,1.9-2.4,3.8-3.7,5.5
        c-1.4,1.8-3,3.3-5,4.6c-0.4,0.3-0.7,0.8-0.7,1.5c0.1,1.9,0.3,3.7,0.4,5.6c0.1,1.9,0.4,3.7,0.7,5.6c0.8,6.4,1.9,12.7,3.1,19
        c1.3,6.3,2.5,12.6,3.8,18.9c0.1,0.6,0.3,1.2,0.4,1.9C225.8,172.7,225.9,173.4,226.1,174.2z M220.2,181.7
        c-0.4,0.2-0.6,0.2-0.6,0.2c-2.3,1.8-4.2,3.8-5.6,6.1c-1.5,2.3-2.4,5-2.7,7.9c-0.1,0.6-0.1,1.2-0.1,1.7c0,0.6,0.1,1.1,0.3,1.7
        c0.4,1.1,1,1.8,1.8,2c0.8,0.2,1.6,0.1,2.5-0.4c0.9-0.5,1.6-1.2,2.1-1.9c0.5-0.7,0.9-1.6,1.3-2.7c0.7-2.2,1.1-4.5,1.2-6.7
        c0.1-2.2,0.1-4.5,0-6.9C220.4,182.3,220.3,182,220.2,181.7z M217.3,117c0.1-0.1,0.3-0.3,0.6-0.4c0.2-0.1,0.4-0.3,0.6-0.4
        c1.3-1.2,2.4-2.5,3.4-3.8c1-1.3,1.9-2.8,2.7-4.2c0.6-1.1,1.1-2.3,1.4-3.4c0.3-1.2,0.6-2.4,0.7-3.6c0.1-0.8,0.1-1.6-0.1-2.4
        c-0.1-0.8-0.4-1.5-0.7-2.3c-0.7-1.3-1.6-1.6-2.9-0.7c-0.6,0.4-1.1,0.8-1.6,1.4c-0.5,0.6-0.9,1.1-1.3,1.7c-0.6,1-1.1,2.1-1.5,3.2
        c-0.4,1.1-0.7,2.2-0.8,3.4c-0.4,1.9-0.6,3.8-0.6,5.6c0,1.8,0,3.7,0.1,5.6C217.1,116.7,217.2,116.8,217.3,117z"/>
    <path class="st2486" d="M255.2,164.9c-0.1,0-0.1,0-0.1,0.1c0,0.1,0,0.1-0.1,0.2c0,0.1-0.1,0.1-0.1,0.2c-0.4,1-0.8,2.1-1.2,3.2
        c-0.4,1.1-0.8,2.2-1.2,3.3c-0.4,1.3-0.9,2.5-1.5,3.7c-0.6,1.2-1.2,2.4-1.9,3.5c-0.1,0.3-0.2,0.6-0.4,0.8c-2.4,3.5-5,3.6-7.9,0.4
        c-0.8-1-1.5-2-2-3.1c-0.5-1.1-0.8-2.4-0.8-3.8c0-6,2-11.4,6-16c1.2-1.4,2.8-2.4,4.7-3c2.4-0.4,4.4,0.3,5.9,2.1
        c0.1,0.3,0.4,0.6,0.6,0.8c0.3,0.3,0.5,0.5,0.6,0.8c0.5-1.1,0.9-2,1.1-2.5c0.2-0.6,0.3-1,0.4-1.5c0.1-0.4,0.2-0.9,0.3-1.3
        c0.1-0.5,0.5-1.2,1-2.1c0.7-0.6,1.5-0.9,2.3-0.8c1.3,0.1,2,0.8,2.2,1.9c0.1,0.5,0.2,1.1,0.3,1.6c0,0.6,0,1.1-0.1,1.6
        c-0.7,4-1.3,8-2,12c-0.6,3.9-0.8,7.8-0.6,11.5c0.2,1.9,1,3.7,2.2,5.1c0.8,1,1.6,1.5,2.3,1.6c0.7,0.1,1.6-0.2,2.6-0.8
        c0.6-0.4,1.2-0.8,1.7-1.3c0.5-0.5,1-1,1.6-1.6c1.9-1.9,3.7-4,5.2-6.2c1.5-2.2,3-4.5,4.5-6.9c0.9-1.4,1.8-2.8,2.7-4.1
        c0.9-1.3,1.8-2.8,2.8-4.2c0.1,0,0.1,0,0.1-0.1c0-0.1,0-0.1,0.1-0.2c0.1-0.2,0.4-0.4,0.6-0.6c0.3-0.1,0.5-0.1,0.8,0.1
        c0.4,0.2,0.6,0.5,0.4,0.7c-0.2,0.3-0.4,0.5-0.5,0.8c-1.7,2.5-3.4,5.1-5,7.7c-1.6,2.6-3.3,5.1-5,7.7c-0.9,1.3-1.9,2.6-3,3.9
        c-1.1,1.3-2.2,2.5-3.4,3.8c-0.9,1-2.1,1.9-3.5,2.7c-2.8,1.5-5.2,1.1-7.4-1.1c-1.2-1-2.1-2.2-2.8-3.6s-1.2-2.8-1.5-4.2
        c-0.3-1.3-0.5-2.5-0.6-3.7c-0.1-1.2-0.2-2.5-0.2-3.7c-0.1-0.5-0.1-1.1-0.1-1.7c0-0.6,0-1.2,0-1.8c0-0.1,0-0.2-0.1-0.4
        c0-0.2-0.1-0.5-0.1-0.7c0-0.3-0.1-0.5-0.2-0.7C255.5,164.9,255.4,164.8,255.2,164.9z M251.2,158c-0.8,0.2-1.4,0.6-1.7,1.3
        c-1,1.3-1.8,2.6-2.3,4.1c-0.5,1.5-1,3-1.3,4.6c-0.5,1.5-0.9,3-1.2,4.6c-0.3,1.6-0.5,3.2-0.6,4.9c0,1,0.3,1.5,0.8,1.7
        c0.1,0,0.4-0.1,0.6-0.3c0.3-0.2,0.5-0.4,0.6-0.6c0.4-0.8,0.9-1.6,1.3-2.3c0.4-0.7,0.9-1.5,1.2-2.2l5.7-11.4
        c0.2-0.4,0.3-0.9,0.2-1.5c-0.1-0.5-0.3-1-0.6-1.5c-0.3-0.4-0.7-0.8-1.1-1.1c-0.4-0.3-0.9-0.4-1.5-0.3H251.2z"/>
    <path class="st2486" d="M303.8,163.9c-1.1,3.6-2.4,7.1-3.8,10.4c-1.4,3.4-3,6.8-4.7,10.1c-0.4,0.9-1,1.7-1.7,2.6
        c-0.7,0.8-1.5,1.3-2.6,1.3c-0.7,0.1-1.3-0.1-1.8-0.4c-0.6-0.4-1-0.9-1.4-1.5c-0.4-0.6-0.7-1.2-0.8-1.8c-0.2-0.6-0.4-1.2-0.5-1.9
        c-0.5-2.6-0.9-5.2-1-7.8c-0.1-2.6-0.1-5.2,0-7.8c0.2-2.6,0.3-5.2,0.4-7.8c0.2-2.6,0.5-5.1,1-7.5c0.1-0.6,0.2-1.1,0.4-1.6
        c0.2-0.5,0.5-0.9,1.1-1.2c0.6-0.3,1.2-0.3,1.7,0c0.7,0.4,1.2,1,1.3,1.8c0.1,0.8,0.2,1.6,0.2,2.3c-0.1,5.1-0.2,10.1-0.4,15.1
        c-0.2,5-0.5,10.1-0.9,15.2c0,0.6,0,1.1,0.1,1.5c0.1,0.2,0.3,0.4,0.5,0.7c0.2,0.2,0.4,0.3,0.7,0.3c0.3-0.1,0.6-0.2,0.8-0.4
        c0.4-0.4,0.8-0.8,1-1.3c0.2-0.5,0.4-1,0.7-1.5c0.3-0.6,0.6-1.2,0.8-1.8c0.3-0.6,0.5-1.2,0.8-1.8c0.6-1.3,1.2-2.5,1.7-3.6
        c0.6-1.2,1.1-2.4,1.5-3.6c1-2.4,2-4.8,2.8-7.4c0.8-2.5,1.4-5.1,1.8-7.7c0.1-0.3,0.1-0.6,0.1-0.8c0-0.3,0-0.5,0.1-0.7
        c0.1-0.6,0.1-1.2,0.2-1.7c0.1-0.6,0.3-1.1,0.6-1.5c0.4-0.5,0.8-0.9,1.3-1.2c0.5-0.3,1-0.3,1.6-0.2c0.9,0.4,1.3,1.1,1.3,2.1
        c0.1,0.4,0.1,0.9,0,1.3c-0.1,0.4-0.2,0.9-0.3,1.2c-0.3,1-0.6,2.1-0.8,3.2c-0.3,1.1-0.6,2.1-0.9,3.2c-0.2,0.6-0.3,1.2-0.3,1.8
        c-0.1,0.6,0.1,1.2,0.4,1.7c0.9,1.3,2,1.3,3.5,0.1c0.8-0.7,1.6-1.7,2.3-2.8c0.7-1.1,1.5-2.2,2.3-3.2c0.1-0.2,0.4-0.4,0.6-0.5
        c0.3-0.1,0.5-0.1,0.6,0.2c0.1,0.3,0.1,0.7-0.2,1.1c-0.6,0.8-1.2,1.6-1.7,2.3c-0.6,0.7-1.1,1.5-1.7,2.3c-0.5,0.7-1.1,1.5-1.8,2.1
        c-0.7,0.7-1.5,1-2.5,1c-1,0-1.9-0.4-2.7-1.3C304.9,165.7,304.3,164.9,303.8,163.9z"/>
    <path class="st2486" d="M312.9,172.4c0.1-3,0.5-6.1,1.2-9.2c0.6-3.2,1.6-6.3,2.8-9.4c0.4-1,0.8-1.9,1.3-2.5
        c1.2-1.9,2.9-3.1,5.2-3.6c1.7-0.4,3,0.2,3.9,1.7c0.8,1.1,1.2,2.6,1.2,4.5c0,1.9-0.5,3.4-1.3,4.6c-0.5,0.5-1.1,0.9-1.7,1.1
        c-1.1,0.4-2.2,0.8-3.4,1c-0.6,0.1-1,0.5-1.2,1.2c-0.4,1.9-0.8,3.7-1.1,5.5c-0.3,1.8-0.4,3.7-0.4,5.6c0,1.7,0.1,3.4,0.3,5.1
        c0.2,1.7,0.6,3.4,1.2,5.1c0.3,0.7,0.6,1.5,0.9,2.1c0.3,0.7,0.7,1.3,1.3,1.9c1.3,1.4,2.9,1.7,4.7,0.9c0.7-0.4,1.3-0.8,1.8-1.2
        c0.7-0.7,1.4-1.5,2.1-2.2c0.7-0.7,1.4-1.5,2-2.3c1.3-1.8,2.6-3.6,3.8-5.6c1.2-1.9,2.3-3.9,3.4-5.9c1.2-2.4,2.5-4.8,3.8-7.3
        c0.4-0.8,0.8-1.6,1.2-2.5c0.4-0.8,0.9-1.6,1.4-2.5c0.1-0.2,0.3-0.4,0.6-0.6c0.3-0.1,0.6-0.1,0.8,0.1c0.1,0.2,0.2,0.3,0.1,0.4
        c-0.1,0.2-0.2,0.3-0.2,0.4c-0.2,0.2-0.3,0.3-0.3,0.6c-0.1,0.2-0.2,0.4-0.3,0.7c-2.2,4.7-4.4,9.3-6.8,13.9
        c-2.4,4.5-5.3,8.8-8.7,12.6c-0.1,0.1-0.1,0.2-0.2,0.3c-0.1,0-0.1,0.1-0.2,0.3c-0.9,1-1.9,2-3,2.8c-1.1,0.8-2.3,1.3-3.6,1.6
        c-2.2,0.4-4.3-0.2-6.3-1.7c-1.2-0.8-2.1-1.9-2.9-3.1c-0.8-1.3-1.4-2.6-1.9-3.9c-0.5-1.6-0.8-3.3-1-5
        C313.1,176.4,312.9,174.5,312.9,172.4z M322.4,157.9c0.1,0.3,0.5,0.3,1.2,0.1c1.2-0.4,2-1.1,2.3-2.3c0.3-1.2,0.3-2.3-0.1-3.4
        c-0.2-0.5-0.5-0.6-0.8-0.2c-0.3,0.4-0.5,0.8-0.6,1.1l-2,3.7C322.3,157.3,322.2,157.6,322.4,157.9z"/>
    <path class="st2486" d="M361,185.9c0-2.2,0.1-4.3,0.3-6.4c0.2-2.1,0.5-4.3,0.8-6.4c0.6-5.1,1.4-10.1,2.4-15c1-5,2.1-9.9,3.4-14.9
        v-0.6c-0.1,0.1-0.2,0.1-0.2,0.1c-0.1,0-0.2,0-0.2,0.1c-1.3,0.6-2.6,1.3-3.7,2.1c-1.2,0.8-2.1,1.8-3,3.1c-0.4,0.4-0.7,0.5-1,0.3
        c-0.4-0.3-0.5-0.7-0.2-1.1c0.4-0.7,0.8-1.2,1.3-1.7c0.5-0.5,1-0.9,1.5-1.4c1.6-1.3,3.5-2.4,5.7-3.2c0.5-0.2,0.8-0.5,0.9-0.9
        c1-4.1,2.5-8.1,4.6-12.1c0.7-1.3,1.5-2.7,2.3-4c0.8-1.3,1.7-2.6,2.7-3.8c0.5-0.7,1.2-1.4,2-2c1-0.8,1.9-0.9,2.5-0.4
        c0.6,0.6,1,1.4,1.2,2.4c0.4,3.1,0.3,6.2-0.4,9.2c-0.7,3-1.6,5.9-2.6,8.8c-0.2,0.4-0.1,0.6,0.3,0.6c1.1,0,2.3,0,3.6-0.1
        c1.3,0,2.7-0.3,4.3-0.7c1.6-0.4,3.4-1.1,5.5-2c2.1-0.9,4.5-2.2,7.4-3.9c0.1-0.1,0.3-0.1,0.4-0.2c0.1-0.1,0.3,0,0.4,0.2
        c0.1,0.2,0,0.4-0.3,0.8c-0.3,0.3-0.6,0.6-0.9,0.8c-0.3,0.2-0.6,0.4-0.9,0.7c-3.6,2.5-7.1,4.2-10.6,4.9c-3.5,0.7-6.8,1.1-9.9,1.1
        c-0.3,0-0.5,0.2-0.7,0.6c-0.7,1.8-1.6,3.6-2.5,5.3c-0.9,1.8-1.9,3.4-2.9,5.1c-0.4,0.7-0.9,1.5-1.3,2.1c-0.4,0.7-0.9,1.3-1.3,2
        c-0.4,0.6-0.6,1.2-0.7,1.7c-0.8,4-1.5,8.1-2.2,12.1c-0.6,4.1-1.2,8.1-1.7,12.2c-0.3,2.6-0.4,5.2-0.4,7.9c0,2.6,0.2,5.3,0.7,7.9
        c0.1,0.5,0.2,1,0.4,1.5c0.2,0.5,0.4,1,0.6,1.5c0.6,1.2,1.5,1.4,2.7,0.6c1-0.7,1.7-1.5,2.3-2.1c2.5-3.1,4.6-6.4,6.4-9.7
        c1.8-3.4,3.4-6.8,4.9-10.4c1.3-3.1,2.7-6.3,4-9.4c1.3-3.1,2.6-6.3,3.9-9.4c0.1-0.1,0.1-0.1,0.1-0.2c0-0.1,0-0.1,0.1-0.2
        c0.1-0.1,0.2-0.3,0.3-0.5c0.1-0.2,0.3-0.2,0.6-0.1c0.3,0.2,0.5,0.3,0.5,0.6c0,0.2,0,0.4-0.2,0.6c-0.3,0.7-0.6,1.5-0.9,2.2
        c-0.3,0.7-0.6,1.4-0.9,2.1c-1.3,3.1-2.5,6.2-3.8,9.2c-1.3,3-2.5,6.1-3.8,9.1c-1.1,2.5-2.3,5-3.6,7.5c-1.3,2.5-2.7,4.8-4.2,7
        c-0.6,0.9-1.2,1.8-1.9,2.7c-0.7,0.9-1.5,1.7-2.3,2.3c-0.6,0.4-1.2,0.8-1.8,1.1c-0.6,0.3-1.3,0.3-2.1,0.2c-0.4-0.1-0.7-0.2-1-0.3
        c-0.3-0.2-0.6-0.3-0.9-0.4c-1-0.7-1.8-1.6-2.4-2.7c-0.6-1-1.1-2.1-1.5-3.2c-0.7-1.7-1.3-3.4-1.6-5.1
        C361.2,189.6,361,187.8,361,185.9z M372.4,151.5c0.1,0.1,0.1,0.1,0.2,0.1c1.2-1.7,2.3-3.5,3.2-5.4c0.9-1.9,1.8-3.9,2.7-5.9
        c-0.5,0.1-1,0.1-1.5,0.1c-0.4,0-0.9,0-1.3,0.1c-0.2,0.2-0.4,0.3-0.6,0.6c-0.2,0.4-0.3,0.7-0.3,1c-0.1,0.3-0.2,0.6-0.2,1
        c-0.4,1.4-0.7,2.8-1.1,4.2C373.2,148.7,372.8,150.1,372.4,151.5z M382.5,120.5h-0.2c-0.1,0.1-0.2,0.3-0.3,0.6
        c-0.4,1-0.9,2.1-1.4,3.2c-0.5,1.1-0.9,2.2-1.3,3.3c-0.6,1.8-1.1,3.6-1.6,5.4c-0.5,1.8-1,3.6-1.5,5.4c-0.1,0.4,0,0.6,0.4,0.6
        c0.4-0.1,0.7-0.1,1.1-0.2c0.4,0,0.7-0.1,1.1-0.1c0.4,0,0.6-0.1,0.7-0.4c0.4-1,0.7-1.9,1-2.8c0.3-0.9,0.6-1.8,1-2.7
        c0.6-1.7,1-3.4,1.1-5.1c0.1-1.7,0.2-3.4,0.2-5.1c0-0.3,0-0.6-0.1-0.9C382.6,121.2,382.6,120.9,382.5,120.5z"/>
    <path class="st2486" d="M396.5,178.5c0.4-0.5,0.7-1,1.1-1.6c0.3-0.5,0.7-1,1.1-1.6c0.9-1.6,1.8-3.3,2.7-4.9
        c0.9-1.6,1.8-3.2,2.8-4.7c0.6-1.1,1.3-2.1,2.2-3c0.9-0.9,1.8-1.7,2.9-2.6c0.8-0.6,1.7-0.8,2.5-0.7c0.9,0.1,1.6,0.6,2.2,1.4
        c0.7,1,1.1,2.1,1.2,3.2c0,1.1,0.1,2.3,0.2,3.5c0.1,3.7,0.1,7.4,0.2,11c0,3.6,0.2,7.3,0.4,11c0.1,0.6,0.2,1.2,0.5,1.8
        c0.3,0.6,0.8,0.8,1.5,0.6c0.4-0.1,0.9-0.3,1.3-0.8c1.9-1.9,3.4-4.2,4.5-6.7c1.1-2.5,2.1-5.1,3.2-7.6c1.2-2.9,2.4-5.8,3.6-8.7
        c1.2-2.9,2.4-5.8,3.7-8.6c0.1-0.4,0.3-0.7,0.4-0.9c0.4-0.4,0.7-0.5,1-0.3c0.4,0.2,0.5,0.4,0.3,0.9c0,0.4-0.1,0.9-0.4,1.5
        c-1.1,2.8-2.2,5.5-3.4,8.2c-1.1,2.7-2.2,5.4-3.4,8c-0.6,1.4-1.2,2.8-1.8,4.1c-0.6,1.3-1.2,2.7-1.8,4.1c-0.6,1.3-1.2,2.6-1.7,3.9
        c-0.6,1.3-1.2,2.5-2.1,3.6c-0.5,0.6-1.1,1.1-1.8,1.6c-0.7,0.5-1.5,0.8-2.3,0.9c-1.2,0.1-2.3-0.1-3.4-0.7c-1-0.6-1.9-1.4-2.6-2.4
        c-1.1-1.8-1.8-3.8-2.1-5.9c-0.3-2.2-0.5-4.2-0.6-6.3c0-1.6,0-3.1,0.1-4.7c0.1-1.6,0.2-3.1,0.3-4.7c0.1-0.8,0.1-1.6,0.2-2.3
        c0-0.7,0.1-1.5,0.3-2.3c0-0.1,0-0.3,0.1-0.6c0.1-0.3,0.1-0.7,0.1-1c0-0.3,0-0.6-0.1-0.8c-0.1-0.2-0.3-0.3-0.6-0.2
        c-0.6,0.1-1.1,0.4-1.4,0.9c-0.3,0.6-0.7,1.1-0.9,1.5c-0.5,0.7-1,1.5-1.4,2.2c-0.4,0.7-0.8,1.4-1.3,2.2c-0.4,1-0.9,1.9-1.5,2.7
        c-0.6,0.9-1.1,1.7-1.6,2.6c-0.5,0.8-1,1.7-1.5,2.6c-0.4,0.9-1,1.7-1.7,2.5c-0.8,0.9-1.6,1.3-2.3,1.1c-0.7-0.1-1.4-0.6-2-1.2
        c-0.6-0.7-1.1-1.5-1.5-2.4c-0.4-0.9-0.6-1.7-0.7-2.4c-0.4-2.5-0.3-5,0.1-7.6c0.4-2.6,0.9-5.1,1.5-7.5c0.5-2.7,1-5.4,1.5-8.1
        c0.4-2.7,1-5.4,1.7-8c0.8-3.1,1.6-6.2,2.4-9.2c0.8-3,1.6-6.1,2.4-9.1c0.4-1.6,0.9-3.1,1.5-4.6c0.6-1.5,1.1-3,1.7-4.5
        c0.5-1.3,1.1-2.4,1.8-3.5c0.7-1.1,1.4-2.2,2.2-3.3c0.3-0.4,0.6-0.7,0.9-1.1c0.3-0.3,0.6-0.7,1-1c0.7-0.6,1.6-0.9,2.5-0.8
        c1.2,0.2,2,0.9,2.6,2.2c0.5,1.3,0.9,2.5,1,3.5c0.5,2.5,0.6,5,0.2,7.5c-0.4,2.5-0.9,5-1.4,7.4c-0.6,2.8-1.4,5.6-2.3,8.4
        c-1,2.8-2.1,5.5-3.5,8.1c-0.6,1.3-1.3,2.5-2.1,3.7c-0.8,1.2-1.6,2.4-2.4,3.6c-0.9,1.3-1.9,2.4-2.9,3.4c-1,1-1.7,2.3-2,3.7
        c-0.5,3.1-1,6.2-1.5,9.3c-0.4,3.1-1,6.1-1.6,9.2c-0.1,0.2-0.1,0.5-0.1,0.9C396.2,178.5,396.3,178.5,396.5,178.5z M400.6,152.8
        c0.1,0,0.3,0,0.3,0.1c0.1-0.1,0.3-0.3,0.4-0.4c0.1-0.1,0.2-0.2,0.3-0.4c0.8-1.3,1.7-2.5,2.5-3.8c0.9-1.3,1.6-2.6,2.3-4
        c1.3-2.6,2.4-5.3,3.5-8c1-2.8,1.9-5.6,2.5-8.5c0.5-2.2,0.9-4.3,1.2-6.4c0.3-2.1,0.4-4.3,0.2-6.4c-0.1-0.8-0.2-1.6-0.4-2.3
        c-0.2-0.7-0.5-1.5-0.9-2.2c-0.1,0.2-0.3,0.5-0.4,0.8c-0.4,1-0.7,2.1-1.1,3.1c-0.4,1-0.7,2-1.1,3.1c-0.4,1.6-0.9,3.3-1.3,4.9
        c-0.4,1.6-0.9,3.3-1.2,4.9c-1,3.7-2,7.4-3,11.1c-0.9,3.7-1.9,7.4-2.8,11.2c-0.2,0.6-0.3,1.2-0.4,1.7
        C400.9,151.7,400.7,152.2,400.6,152.8z"/>
    <path class="st2486" d="M431.2,172.4c0.1-3,0.5-6.1,1.2-9.2c0.6-3.2,1.6-6.3,2.8-9.4c0.4-1,0.8-1.9,1.3-2.5
        c1.2-1.9,2.9-3.1,5.2-3.6c1.7-0.4,3,0.2,3.9,1.7c0.8,1.1,1.2,2.6,1.2,4.5c0,1.9-0.5,3.4-1.3,4.6c-0.5,0.5-1.1,0.9-1.7,1.1
        c-1.1,0.4-2.2,0.8-3.4,1c-0.6,0.1-1,0.5-1.2,1.2c-0.4,1.9-0.8,3.7-1.1,5.5c-0.3,1.8-0.4,3.7-0.4,5.6c0,1.7,0.1,3.4,0.3,5.1
        c0.2,1.7,0.6,3.4,1.2,5.1c0.3,0.7,0.6,1.5,0.9,2.1c0.3,0.7,0.7,1.3,1.3,1.9c1.3,1.4,2.9,1.7,4.7,0.9c0.7-0.4,1.3-0.8,1.8-1.2
        c0.7-0.7,1.4-1.5,2.1-2.2c0.7-0.7,1.4-1.5,2-2.3c1.3-1.8,2.6-3.6,3.8-5.6c1.2-1.9,2.3-3.9,3.4-5.9c1.2-2.4,2.5-4.8,3.8-7.3
        c0.4-0.8,0.8-1.6,1.2-2.5c0.4-0.8,0.9-1.6,1.4-2.5c0.1-0.2,0.3-0.4,0.6-0.6c0.3-0.1,0.6-0.1,0.8,0.1c0.1,0.2,0.2,0.3,0.1,0.4
        c-0.1,0.2-0.1,0.3-0.2,0.4c-0.1,0.2-0.3,0.3-0.3,0.6c-0.1,0.2-0.2,0.4-0.3,0.7c-2.2,4.7-4.4,9.3-6.8,13.9
        c-2.4,4.5-5.3,8.8-8.7,12.6c-0.1,0.1-0.2,0.2-0.2,0.3c-0.1,0-0.2,0.1-0.2,0.3c-0.9,1-1.9,2-3,2.8c-1.1,0.8-2.3,1.3-3.6,1.6
        c-2.2,0.4-4.3-0.2-6.3-1.7c-1.2-0.8-2.1-1.9-2.9-3.1c-0.8-1.3-1.4-2.6-1.9-3.9c-0.5-1.6-0.8-3.3-1-5
        C431.4,176.4,431.3,174.5,431.2,172.4z M440.7,157.9c0.1,0.3,0.5,0.3,1.2,0.1c1.2-0.4,2-1.1,2.3-2.3c0.3-1.2,0.3-2.3-0.1-3.4
        c-0.2-0.5-0.5-0.6-0.8-0.2c-0.3,0.4-0.5,0.8-0.6,1.1l-2,3.7C440.6,157.3,440.6,157.6,440.7,157.9z"/>
    <path class="st2486" d="M496.8,168.5c-0.1,0.4-0.3,0.7-0.4,0.8c-0.1,0.2-0.2,0.4-0.4,0.5c-0.6,1.1-1.2,2.2-1.8,3.3
        c-0.6,1.1-1.2,2.1-1.9,3.2c-0.7,1.2-1.5,2.2-2.2,3.1c-1,1-2,1.6-3.2,1.7c-1.2,0.1-2.3-0.4-3.3-1.5c-1.1-1.2-1.9-2.5-2.4-3.9
        c-0.5-1.4-0.8-2.8-0.8-4.3c-0.1-2.8,0.1-5.6,0.8-8.3c0.7-2.7,1.6-5.4,2.8-8c0.3-0.7,0.8-1.4,1.5-2.1c0.7-0.7,1.4-1.4,2.2-1.8
        c0.8-0.5,1.6-0.8,2.5-1c0.9-0.2,1.7-0.1,2.5,0.4c0.9,0.6,1.6,1.3,2.2,2c0.1,0.2,0.4,0.5,0.9,0.9c0.4,0.4,0.7,0.8,0.7,1.2
        c0.1-0.7,0.1-1.4,0.1-2c0-0.6,0-1.2,0.1-1.8c0.3-2.8,0.6-5.6,0.8-8.3c0.2-2.7,0.5-5.5,0.8-8.3c0.4-3.8,1-7.5,1.8-11.1
        c0.8-3.6,1.7-7.2,2.8-10.8c0.4-1.5,1-2.9,1.8-4.2c0.7-1.3,1.6-2.6,2.5-3.9c0.3-0.4,0.7-0.7,1.1-1.1c0.4-0.3,0.9-0.6,1.3-0.8
        c1.4-0.7,2.4-0.4,2.9,1.1c0.4,1.3,0.6,2.3,0.6,3.2c0.2,4.8,0,9.6-0.6,14.2c-0.6,4.7-1.6,9.3-2.8,14c-0.8,3.1-1.7,6.2-2.7,9.2
        c-1,3-2.1,6.1-3.4,9.1c-0.3,0.6-0.4,1.4-0.4,2.3c-0.1,3.1-0.1,6.1,0.1,9.1c0.2,3,0.5,6,0.8,9.1c0.1,1.2,0.3,2.4,0.3,3.6
        c0.1,1.2,0.2,2.4,0.3,3.6c0.1,0.8,0.4,1.6,0.7,2.5c0.3,0.8,0.8,1.5,1.6,2c0.8,0.6,1.7,0.8,2.6,0.6c0.9-0.2,1.7-0.6,2.3-1.2
        c0.4-0.4,0.7-0.9,1.1-1.3c0.4-0.4,0.7-0.9,1.1-1.4c1.2-1.9,2.3-3.8,3.4-5.8c1-2,2-4,3-6c0.3-0.7,0.7-1.6,1.2-2.5
        c0.5-0.9,1-1.9,1.5-2.9c0.5-1,1-2,1.5-2.9c0.5-0.9,1-1.7,1.5-2.4c0.3-0.6,0.6-1,0.8-1.1c0.3-0.3,0.6-0.3,0.9,0
        c0.2,0.2,0.3,0.5,0.1,0.8c-0.1,0.4-0.3,0.9-0.6,1.3c-0.2,0.4-0.4,0.8-0.7,1.3c-0.7,1.6-1.6,3.3-2.5,5.1c-0.9,1.8-1.8,3.7-2.8,5.5
        c-1,1.9-2,3.7-3,5.5c-1,1.8-2,3.4-2.8,4.9c-0.4,0.6-0.8,1.2-1.2,1.7c-0.4,0.5-0.8,1-1.3,1.6c-1.5,1.7-3.2,2.5-5,2.2
        c-1.9-0.2-3.4-0.9-4.7-1.9c-1.1-1-2-2.1-2.6-3.4c-0.6-1.3-1.1-2.6-1.5-4c-0.5-1.6-1-3.3-1.3-4.9c-0.4-1.6-0.6-3.3-0.8-5
        C496.9,169.1,496.9,168.8,496.8,168.5z M487,172v0.4c0,0.2,0,0.6-0.1,1.2c0,0.6,0,1.1,0,1.7c0,0.6,0.1,1.1,0.3,1.6
        c0.1,0.4,0.4,0.7,0.8,0.7c0.4,0,0.8-0.3,1.2-0.9c1.3-1.8,2.5-3.6,3.6-5.6c1.1-1.9,2.2-3.9,3.2-5.8c0.4-0.7,0.5-1.6,0.5-2.6
        c0-1-0.2-1.9-0.5-2.8c-0.3-0.9-0.7-1.8-1.1-2.7c-0.4-0.9-0.9-1.6-1.3-2.2c-0.4-0.5-0.8-0.9-1.3-1c-0.5-0.1-1,0.1-1.5,0.7
        c-0.4,0.6-0.6,1.2-0.7,1.8c-0.4,1.6-0.9,3.3-1.3,5c-0.4,1.7-0.9,3.4-1.2,5.1c-0.1,0.9-0.3,1.8-0.3,2.7
        C487.1,170.1,487,171.1,487,172z M510.5,109c-0.2-0.2-0.3-0.1-0.4,0.4c-0.2,0.5-0.2,0.8-0.2,0.9c-0.2,0.4-0.2,0.8-0.3,1.2
        c0,0.4-0.1,0.9-0.3,1.2c-1.3,5.5-2.6,11-3.7,16.4c-1.1,5.1-1.8,10.2-2,15.3c-0.1,0.4-0.1,0.8-0.2,1.2c0,0.4,0,0.9,0.2,1.3
        c-0.1-0.2,0-0.5,0.1-0.9c0.1-0.4,0.3-0.7,0.4-0.9c0.1-0.4,0.3-0.7,0.3-1.1c0.1-0.3,0.2-0.7,0.3-1.1c0.1-0.6,0.3-1.2,0.6-1.9
        c0.2-0.7,0.4-1.3,0.7-2c1.1-3.9,2.1-7.9,3-12c0.9-4,1.4-8.1,1.6-12.2v-5.6c0-0.2,0-0.4-0.1-0.4V109z"/>
    <path class="st2486" d="M538.5,164.9c-0.1,0-0.1,0-0.1,0.1c0,0.1,0,0.1-0.1,0.2c0,0.1-0.1,0.1-0.1,0.2c-0.4,1-0.8,2.1-1.2,3.2
        c-0.4,1.1-0.8,2.2-1.2,3.3c-0.4,1.3-0.9,2.5-1.5,3.7c-0.6,1.2-1.2,2.4-1.9,3.5c-0.1,0.3-0.2,0.6-0.4,0.8c-2.4,3.5-5,3.6-7.9,0.4
        c-0.8-1-1.5-2-2-3.1c-0.5-1.1-0.8-2.4-0.8-3.8c0-6,2-11.4,6-16c1.2-1.4,2.8-2.4,4.7-3c2.4-0.4,4.4,0.3,5.9,2.1
        c0.1,0.3,0.4,0.6,0.6,0.8c0.3,0.3,0.5,0.5,0.6,0.8c0.5-1.1,0.9-2,1.1-2.5c0.2-0.6,0.3-1,0.4-1.5c0.1-0.4,0.2-0.9,0.3-1.3
        c0.1-0.5,0.5-1.2,1-2.1c0.7-0.6,1.5-0.9,2.3-0.8c1.3,0.1,2,0.8,2.2,1.9c0.1,0.5,0.2,1.1,0.3,1.6c0,0.6,0,1.1-0.1,1.6
        c-0.7,4-1.3,8-2,12c-0.6,3.9-0.8,7.8-0.6,11.5c0.2,1.9,1,3.7,2.2,5.1c0.8,1,1.6,1.5,2.3,1.6c0.7,0.1,1.6-0.2,2.6-0.8
        c0.6-0.4,1.2-0.8,1.7-1.3c0.5-0.5,1-1,1.6-1.6c1.9-1.9,3.7-4,5.2-6.2c1.5-2.2,3-4.5,4.5-6.9c0.9-1.4,1.8-2.8,2.7-4.1
        c0.9-1.3,1.8-2.8,2.8-4.2c0.1,0,0.1,0,0.1-0.1c0-0.1,0-0.1,0.1-0.2c0.1-0.2,0.4-0.4,0.6-0.6c0.3-0.1,0.5-0.1,0.8,0.1
        c0.4,0.2,0.6,0.5,0.4,0.7c-0.2,0.3-0.4,0.5-0.5,0.8c-1.7,2.5-3.4,5.1-5,7.7c-1.6,2.6-3.3,5.1-5,7.7c-0.9,1.3-1.9,2.6-3,3.9
        c-1.1,1.3-2.2,2.5-3.4,3.8c-0.9,1-2.1,1.9-3.5,2.7c-2.8,1.5-5.2,1.1-7.4-1.1c-1.2-1-2.1-2.2-2.8-3.6c-0.7-1.3-1.2-2.8-1.5-4.2
        c-0.3-1.3-0.5-2.5-0.6-3.7c-0.1-1.2-0.2-2.5-0.2-3.7c-0.1-0.5-0.1-1.1-0.1-1.7c0-0.6,0-1.2,0-1.8c0-0.1,0-0.2-0.1-0.4
        c0-0.2-0.1-0.5-0.1-0.7c0-0.3-0.1-0.5-0.2-0.7C538.7,164.9,538.6,164.8,538.5,164.9z M534.5,158c-0.8,0.2-1.4,0.6-1.7,1.3
        c-1,1.3-1.8,2.6-2.3,4.1c-0.5,1.5-1,3-1.3,4.6c-0.5,1.5-0.9,3-1.2,4.6c-0.3,1.6-0.5,3.2-0.6,4.9c0,1,0.3,1.5,0.8,1.7
        c0.1,0,0.4-0.1,0.6-0.3c0.3-0.2,0.5-0.4,0.6-0.6c0.4-0.8,0.9-1.6,1.3-2.3c0.4-0.7,0.9-1.5,1.2-2.2l5.7-11.4
        c0.2-0.4,0.3-0.9,0.2-1.5c-0.1-0.5-0.3-1-0.6-1.5c-0.3-0.4-0.7-0.8-1.1-1.1c-0.4-0.3-0.9-0.4-1.5-0.3H534.5z"/>
    <path class="st2486" d="M566.1,185.9c0-2.2,0.1-4.3,0.3-6.4c0.2-2.1,0.5-4.3,0.8-6.4c0.6-5.1,1.4-10.1,2.4-15
        c1-5,2.1-9.9,3.4-14.9v-0.6c-0.1,0.1-0.1,0.1-0.2,0.1c-0.1,0-0.1,0-0.2,0.1c-1.3,0.6-2.6,1.3-3.7,2.1c-1.2,0.8-2.1,1.8-3,3.1
        c-0.4,0.4-0.7,0.5-1,0.3c-0.4-0.3-0.5-0.7-0.2-1.1c0.4-0.7,0.8-1.2,1.3-1.7c0.5-0.5,1-0.9,1.5-1.4c1.6-1.3,3.5-2.4,5.7-3.2
        c0.5-0.2,0.8-0.5,0.9-0.9c1-4.1,2.5-8.1,4.6-12.1c0.7-1.3,1.5-2.7,2.3-4c0.8-1.3,1.7-2.6,2.7-3.8c0.5-0.7,1.2-1.4,2-2
        c1-0.8,1.9-0.9,2.5-0.4c0.6,0.6,1,1.4,1.2,2.4c0.4,3.1,0.3,6.2-0.4,9.2c-0.7,3-1.6,5.9-2.6,8.8c-0.2,0.4-0.1,0.6,0.3,0.6
        c1.1,0,2.3,0,3.6-0.1c1.3,0,2.7-0.3,4.3-0.7c1.6-0.4,3.4-1.1,5.5-2c2.1-0.9,4.5-2.2,7.4-3.9c0.1-0.1,0.3-0.1,0.4-0.2
        c0.1-0.1,0.3,0,0.4,0.2c0.1,0.2,0,0.4-0.3,0.8c-0.3,0.3-0.6,0.6-0.9,0.8c-0.3,0.2-0.6,0.4-0.9,0.7c-3.6,2.5-7.1,4.2-10.6,4.9
        c-3.5,0.7-6.8,1.1-9.9,1.1c-0.3,0-0.5,0.2-0.7,0.6c-0.7,1.8-1.6,3.6-2.5,5.3c-0.9,1.8-1.9,3.4-2.9,5.1c-0.4,0.7-0.9,1.5-1.3,2.1
        c-0.4,0.7-0.9,1.3-1.3,2c-0.4,0.6-0.6,1.2-0.7,1.7c-0.8,4-1.5,8.1-2.2,12.1c-0.6,4.1-1.2,8.1-1.7,12.2c-0.3,2.6-0.4,5.2-0.4,7.9
        c0,2.6,0.2,5.3,0.7,7.9c0.1,0.5,0.2,1,0.4,1.5c0.2,0.5,0.4,1,0.6,1.5c0.6,1.2,1.5,1.4,2.7,0.6c1-0.7,1.7-1.5,2.3-2.1
        c2.5-3.1,4.6-6.4,6.4-9.7c1.8-3.4,3.4-6.8,4.9-10.4c1.3-3.1,2.7-6.3,4-9.4c1.3-3.1,2.6-6.3,3.9-9.4c0.1-0.1,0.1-0.1,0.1-0.2
        c0-0.1,0-0.1,0.1-0.2c0.1-0.1,0.2-0.3,0.3-0.5c0.1-0.2,0.3-0.2,0.6-0.1c0.3,0.2,0.5,0.3,0.5,0.6c0,0.2,0,0.4-0.2,0.6
        c-0.3,0.7-0.6,1.5-0.9,2.2c-0.3,0.7-0.6,1.4-0.9,2.1c-1.3,3.1-2.5,6.2-3.8,9.2c-1.3,3-2.5,6.1-3.8,9.1c-1.1,2.5-2.3,5-3.6,7.5
        c-1.3,2.5-2.7,4.8-4.2,7c-0.6,0.9-1.2,1.8-1.9,2.7c-0.7,0.9-1.5,1.7-2.3,2.3c-0.6,0.4-1.2,0.8-1.8,1.1c-0.6,0.3-1.3,0.3-2.1,0.2
        c-0.4-0.1-0.7-0.2-1-0.3c-0.3-0.2-0.6-0.3-0.9-0.4c-1-0.7-1.8-1.6-2.4-2.7c-0.6-1-1.1-2.1-1.5-3.2c-0.7-1.7-1.3-3.4-1.6-5.1
        C566.2,189.6,566.1,187.8,566.1,185.9z M577.5,151.5c0.1,0.1,0.1,0.1,0.2,0.1c1.2-1.7,2.3-3.5,3.2-5.4c0.9-1.9,1.8-3.9,2.7-5.9
        c-0.5,0.1-1,0.1-1.5,0.1c-0.4,0-0.9,0-1.3,0.1c-0.2,0.2-0.4,0.3-0.6,0.6c-0.1,0.4-0.3,0.7-0.3,1c-0.1,0.3-0.1,0.6-0.2,1
        c-0.4,1.4-0.7,2.8-1.1,4.2C578.2,148.7,577.8,150.1,577.5,151.5z M587.5,120.5h-0.2c-0.1,0.1-0.2,0.3-0.3,0.6
        c-0.4,1-0.9,2.1-1.4,3.2c-0.5,1.1-0.9,2.2-1.3,3.3c-0.6,1.8-1.1,3.6-1.6,5.4c-0.5,1.8-1,3.6-1.5,5.4c-0.1,0.4,0,0.6,0.4,0.6
        c0.4-0.1,0.7-0.1,1.1-0.2c0.4,0,0.7-0.1,1.1-0.1c0.4,0,0.6-0.1,0.7-0.4c0.4-1,0.7-1.9,1-2.8c0.3-0.9,0.6-1.8,1-2.7
        c0.6-1.7,0.9-3.4,1.1-5.1c0.1-1.7,0.2-3.4,0.2-5.1c0-0.3,0-0.6-0.1-0.9C587.7,121.2,587.6,120.9,587.5,120.5z"/>
    <path class="st2486" d="M595.7,172.4c0.1-3,0.5-6.1,1.2-9.2c0.6-3.2,1.6-6.3,2.8-9.4c0.4-1,0.8-1.9,1.3-2.5
        c1.2-1.9,2.9-3.1,5.2-3.6c1.7-0.4,3,0.2,3.9,1.7c0.8,1.1,1.2,2.6,1.2,4.5c0,1.9-0.5,3.4-1.3,4.6c-0.5,0.5-1.1,0.9-1.7,1.1
        c-1.1,0.4-2.2,0.8-3.4,1c-0.6,0.1-1,0.5-1.2,1.2c-0.4,1.9-0.8,3.7-1.1,5.5c-0.3,1.8-0.4,3.7-0.4,5.6c0,1.7,0.1,3.4,0.3,5.1
        c0.2,1.7,0.6,3.4,1.2,5.1c0.3,0.7,0.6,1.5,0.9,2.1c0.3,0.7,0.7,1.3,1.3,1.9c1.3,1.4,2.9,1.7,4.7,0.9c0.7-0.4,1.3-0.8,1.8-1.2
        c0.7-0.7,1.4-1.5,2.1-2.2c0.7-0.7,1.4-1.5,2-2.3c1.3-1.8,2.6-3.6,3.8-5.6c1.2-1.9,2.3-3.9,3.4-5.9c1.2-2.4,2.5-4.8,3.8-7.3
        c0.4-0.8,0.8-1.6,1.2-2.5c0.4-0.8,0.9-1.6,1.4-2.5c0.1-0.2,0.3-0.4,0.6-0.6c0.3-0.1,0.6-0.1,0.8,0.1c0.1,0.2,0.2,0.3,0.1,0.4
        c-0.1,0.2-0.1,0.3-0.2,0.4c-0.1,0.2-0.3,0.3-0.3,0.6c-0.1,0.2-0.2,0.4-0.3,0.7c-2.2,4.7-4.4,9.3-6.8,13.9
        c-2.4,4.5-5.3,8.8-8.7,12.6c-0.1,0.1-0.2,0.2-0.2,0.3c-0.1,0-0.2,0.1-0.2,0.3c-0.9,1-1.9,2-3,2.8c-1.1,0.8-2.3,1.3-3.6,1.6
        c-2.2,0.4-4.3-0.2-6.3-1.7c-1.2-0.8-2.1-1.9-2.9-3.1c-0.8-1.3-1.4-2.6-1.9-3.9c-0.5-1.6-0.8-3.3-1-5
        C595.9,176.4,595.8,174.5,595.7,172.4z M605.2,157.9c0.1,0.3,0.5,0.3,1.2,0.1c1.2-0.4,2-1.1,2.3-2.3c0.3-1.2,0.3-2.3-0.1-3.4
        c-0.2-0.5-0.5-0.6-0.8-0.2c-0.3,0.4-0.5,0.8-0.6,1.1l-2,3.7C605.1,157.3,605,157.6,605.2,157.9z"/>
    </g>
</svg>